PathFileType	4	(X/Y/Z)	/home/abdul/Desktop/myosuite/custom_workspace/IK/output/S14_12_2.trc
DataRate	CameraRate	NumFrames	NumMarkers	Units	OrigDataRate	OrigDataStartFrame	OrigNumFrames
200.0	200.0	55	3	mm	200.0	797	2124
Frame#	Time	V_Shoulder			V_Elbow			V_Wrist		
		X1	Y1	Z1	X2	Y2	Z2	X3	Y3	Z3

797	3.98	-155.29335457405404	661.012079298011	308.51860528334925	-188.44108975988115	493.0818011133415	-0.8730149049543261	-69.95609969163179	314.88239432260656	126.20179241161067
798	3.985	-155.36139975745493	661.1662696971517	308.45695355235733	-188.65909948809036	493.4396621432524	-1.0111326787532882	-70.1973417060617	315.8361858099873	126.89333752613672
799	3.99	-155.4303129435813	661.3211240243734	308.39540239824777	-188.87720600192415	493.7984568015961	-1.1486007307339001	-70.44036594923502	316.7940117127739	127.5829382196636
800	3.995	-155.5000997298448	661.476640348094	308.3339841417428	-189.09533830755407	494.15801751287336	-1.2852787187418304	-70.6850280515729	317.7556875529775	128.27065685150623
801	4.0	-155.57076500954057	661.6328140890491	308.2727309322999	-189.3134233986353	494.518171556786	-1.4210274813463233	-70.93118098406072	318.7210247172528	128.95655621156868
802	4.005	-155.64231298475326	661.7896380320412	308.2116746573508	-189.53138648054266	494.8787415863866	-1.555709458038649	-71.17867546793735	319.6898310377745	129.64069926849407
803	4.01	-155.71474717915018	661.9471023452448	308.1508468532827	-189.74915120125831	495.2395461580768	-1.6891890985490932	-71.42736040339652	320.6619113777407	130.32314892565526
804	4.015	-155.78807045060503	662.1051946069972	308.0902786184694	-189.96663988805977	495.6004002715041	-1.8213332598018077	-71.67708331564457	321.6370682200091	131.00396778581307
805	4.02	-155.86228500359974	662.2638998399708	308.03000052864303	-190.18377378913354	495.9611159173801	-1.9520115890858687	-71.92769081653755	322.6151022574358	131.68321792525245
806	4.025	-155.93739240135545	662.4232005526105	307.97004255489196	-190.40047331921673	496.32150263122287	-2.081096892084526	-72.17902907990815	323.5958129835428	132.3609606781872
807	4.03	-156.013393577648	662.5830767876954	307.91043398455264	-190.61665830835162	496.681368051015	-2.208465484472624	-72.43094432859075	324.5789992822049	133.03725643220287
808	4.035	-156.0902888482669	662.7435061778618	307.85120334525385	-190.83224825282292	497.04051847675964	-2.3339975258641754	-72.68328333106197	325.5644600151012	133.7121644354817
809	4.04	-156.1680779220815	662.9044640079106	307.79237833235567	-191.04716256733695	497.39875942991733	-2.4575773349677554	-72.93589390553376	326.5519946057331	134.3857426165265
810	4.045	-156.24675991168215	663.0659232836983	307.73398574001027	-191.26132083749485	497.75589621071697	-2.5790936848867823	-73.18862542926787	327.54140361886255	135.05804741706868
811	4.05	-156.32633334356922	663.2278548073938	307.6760513960573	-191.4746430716084	498.1117344513451	-2.6984400775840776	-73.4413293508247	328.5324893342707	135.72913363881017
812	4.055	-156.40679616786653	663.3902272588704	307.61860010094955	-191.68704995090806	498.4660806630409	-2.8155149966153132	-73.6938597029156	329.52505631378375	136.3990543046101
813	4.06	-156.48814576754066	663.5530072829787	307.5616555708866	-191.89846307719637	498.8187427751521	-2.9302221373238257	-73.94607361349756	330.51891196054675	137.06786053468352
814	4.065	-156.57037896711248	663.7161595824349	307.5052403853183	-192.10880521700847	499.16953066424287	-3.0424706137792565	-74.19783181273097	331.5138670695634	137.73560143833092
815	4.07	-156.65349204085115	663.8796470160454	307.44937593896077	-192.31800054135334	499.51825667138536	-3.1521751418344177	-74.44899913341654	332.50973636854457	138.40232402166484
816	4.075	-156.73748072044566	664.0434307019711	307.3940823984504	-192.52597486012462	499.8647361058153	-3.2592561977684085	-74.69944500253597	333.5063390481303	139.06807311174174
817	4.08	-156.8223402021533	664.2074701257261	307.3393786637409	-192.73265585028958	500.208787733187	-3.3636401520787977	-74.94904392154254	334.5034992805653	139.73289129744546
818	4.085	-156.90806515342834	664.3717232525897	307.2852823343326	-192.93797327698752	500.55023424672453	-3.4652593780816066	-75.19767593308202	335.50104672591766	140.39681888740017
819	4.09	-156.99464971903976	664.5361466441046	307.23180968040015	-193.14185920669505	500.8889027196325	-3.564052335074285	-75.4452270718718	336.4988170249327	141.05989388511944
820	4.095	-157.08208752668864	664.7006955783183	307.1789756188704	-193.34424821164538	501.2246250372041	-3.65996362591374	-75.69158979752578	337.4966522776115	141.72215198152048
821	4.1	-157.170371692142	664.865324173424	307.12679369447943	-193.54507756472225	501.55723830714174	-3.7529440289584635	-75.93666340718481	338.4944015065952	142.38362656485214
822	4.105	-157.25949482390158	665.0299855144413	307.07527606582056	-193.74428742408443	501.8865852466928	-3.842950504420374	-76.18035442589621	339.4919211044231	143.04434874799855
823	4.11	-157.34944902743135	665.194631782576	307.02443349637764	-193.94182100681712	502.21251454528755	-3.929946175268114	-76.42257697278121	340.48907526371386	143.7043474130325
824	4.115	-157.4402259089692	665.3592143868938	306.97427535051656	-194.1376247509475	502.53488120146795	-4.0139002829187795	-76.66325310113574	341.4857363892971	144.3636492727988
825	4.12	-157.53181657895274	665.523684097931	306.9248095943921	-194.3316484652076	502.8535468329894	-4.094788118049063	-76.90231311072628	342.4817854912975	145.02227894921378
826	4.125	-157.6242116550905	665.6879911828725	306.8760428017091	-194.5238454659741	503.1683799590845	-4.172590926949349	-77.13969583066851	343.47711255814454	145.6802590678684
827	4.13	-157.7174012651146	665.8520855419152	306.82798016425824	-194.71417270086522	503.47925625398466	-4.2472957939350895	-77.3753488714117	344.4716169084523	146.3376103684236
828	4.135	-157.81137504925042	666.015916845442	306.78062550713327	-194.90259085852603	503.786058770905	-4.318895500418577	-77.60922884449539	345.46520752068045	146.9943518301863
829	4.14	-157.90612216244375	666.1794346716239	306.73398130851666	-195.0890644641878	504.0886781358156	-4.387388361330508	-77.84130154889537	346.45780333946186	147.65050081215418
830	4.145	-158.00163127638587	666.3425886440765	306.6880487239069	-195.27356196064298	504.38701271043533	-4.452778039664619	-78.07154212293355	347.4493335574488	148.3060732067169
831	4.15	-158.09789058137878	666.5053285691944	306.6428276146473	-195.4560557743339	504.6809687240086	-4.515073339999429	-78.29993516088895	348.43973787150526	148.96108360610376
832	4.155	-158.19488778808503	666.6676045727893	306.59831658059846	-195.63652236631287	504.9704603735421	-4.57428798192886	-78.52647479361512	349.4289667120497	149.61554548057143
833	4.16	-158.2926101292064	666.829367235665	306.55451299678776	-195.81494226788996	505.2554098923045	-4.630440354407774	-78.75116473264039	350.4169814443361	150.26947136723192
834	4.165	-158.39104436113692	666.9905677277657	306.51141305385204	-195.99130010084656	505.5357475865167	-4.683553252089036	-78.97401827740181	351.4037545404458	150.92287306833214
835	4.17	-158.49017676563687	667.15115794054	306.46901180208215	-196.16558458215337	505.81141184028195	-4.733653594795362	-79.19505828543936	352.38926972076047	151.57576185771308
836	4.175	-158.58999315157237	667.3110906171709	306.42730319886397	-196.33778851319374	506.08234908893144	-4.780772131331727	-79.41431710555372	353.37352206368973	152.22814869409575
837	4.18	-158.6904788567673	667.4703194803279	306.38628015930374	-196.50790875355435	506.3485137610859	-4.8249431289021185	-79.6318364741073	354.35651808243733	152.88004443977223
838	4.185	-158.79161875001287	667.6287993571083	306.3459346098126	-196.6759461795084	506.60986818985515	-4.866204049447964	-79.84766737482325	355.33827576761587	153.53146008321337
839	4.19	-158.89339723327916	667.7864863008407	306.3062575444228	-196.8419056273766	506.8663824937198	-4.904595214274172	-80.06186986260974	356.3188245945519	154.18240696404928
840	4.195	-158.9957982441722	667.9433377094418	306.2672390835949	-197.005795822013	507.1180344277599	-4.9401594583723725	-80.27451285210586	357.2982054941714	154.83289699883215
841	4.2	-159.09880525867982	668.0993124400179	306.2288685352757	-197.16762929072283	507.3648092060122	-4.972941775889396	-80.48567387181083	358.276470786412	155.48294290595197
842	4.205	-159.2024012942463	668.2543709194236	306.19113445795506	-197.32742226297813	507.6066992958532	-5.00298895822209	-80.69543878481734	359.2536840751842	156.13255842804932
843	4.21	-159.30656891321618	668.4084752504976	306.1540247254724	-197.48519455635454	507.8437041854146	-5.030349226247116	-80.90390147732319	360.229920103986	156.78175855025245
844	4.215	-159.41129022668463	668.5615893137096	306.1175265933155	-197.64096944916884	508.0758301251464	-5.055071858216252	-81.11116351624199	361.2052645713791	157.43055971256035
845	4.22	-159.51654689878944	668.7136788639691	306.08162676615456	-197.79477354035126	508.30308984474675	-5.077206814863866	-81.31733377737149	362.17981390564563	158.0789800147004
846	4.225	-159.62232015147904	668.8647116223557	306.0463114663545	-197.94663659713837	508.525502246772	-5.09680436328334	-81.52252804570782	363.1536749980769	158.72703941180578
847	4.23	-159.72859076978696	669.0146573625511	306.0115665032063	-198.09659139122158	508.7430920783388	-5.113914701133535	-81.72686858961407	364.1269648944833	159.37475989929032
848	4.235	-159.83533910764194	669.163487991766	305.97737734262074	-198.2446735240349	508.95588958241166	-5.128587582734557	-81.93048371066178	365.099810444675	160.0221656853385
849	4.24	-159.942545094239	669.311177625969	305.9437291770283	-198.39092124190825	509.16393013025476	-5.14087194860414	-82.1335072710625	366.0723479098289	160.66928334948415
850	4.245	-160.05018824099616	669.4577026592453	305.91060699523445	-198.5353752418557	509.36725383669807	-5.150815559971955	-82.33607820069595	367.0447225278415	161.31614198581684
851	4.25	-160.15824764911596	669.6030418271285	305.8779956519811	-198.67807846880538	509.5659051599374	-5.158464639789054	-82.5383399858173	368.017088036958	161.96277332943393
